<svg width="142" height="46" viewBox="0 0 142 46" fill="none" xmlns="http://www.w3.org/2000/svg">
<g clip-path="url(#clip0_100_12)">
<path d="M24.3476 12.7097C27.2482 13.9553 32.3327 10.7774 32.4754 6.87012C32.4754 6.87012 30.3299 10.5197 22.9173 9.23214C22.9173 9.23214 21.8751 11.6483 24.3476 12.7105V12.7097Z" fill="#FFF3DA"/>
<path d="M32.5471 8.71669C31.8907 10.3816 30.3633 11.7225 30.3633 11.7225C35.8775 9.53257 35.8237 4.93432 33.0315 3.56026C30.9724 2.54696 31.2587 -0.000244141 31.2587 -0.000244141C30.1488 1.75992 30.7351 3.493 31.9388 4.89501C32.9597 6.08388 33.2028 7.05524 32.5471 8.71669Z" fill="#FFF3DA"/>
<path d="M28.5378 16.4458C31.0087 14.5135 31.0087 12.3664 28.8118 13.2687C26.2871 14.3065 25.2555 14.0829 24.3838 13.7404C24.3838 13.7404 25.0133 14.303 25.0998 15.415C25.2074 16.7882 26.3303 18.171 28.537 16.4458H28.5378Z" fill="#FFF3DA"/>
<path d="M24.5767 15.3633C24.4902 17.1234 24.0368 17.6668 22.7003 18.9098C21.3629 20.152 21.2748 21.0063 21.7494 22.6109C22.224 24.2156 22.052 26.0797 22.052 26.0797C22.052 26.0797 22.3325 24.7336 24.0156 21.4465C25.6996 18.1594 24.5767 15.3642 24.5767 15.3642V15.3633Z" fill="#FFF3DA"/>
<path d="M24.0511 14.7852C24.0511 14.7852 23.95 16.0657 22.7846 16.7882C21.6193 17.5106 20.6481 18.1325 20.9286 20.0997C20.9286 20.0997 20.9719 19.1161 22.0295 18.5981C23.0872 18.081 24.0511 16.8039 24.0511 14.7852Z" fill="#FFF3DA"/>
<path d="M11.0791 13.6122C11.2577 14.9862 12.3667 16.017 13.4277 16.6608C14.4878 17.3046 15.1222 19.1084 14.1918 21.2555C13.2605 23.4027 13.4358 25.0344 13.4358 25.0344C14.761 22.157 20.1235 22.157 21.4478 25.0344C21.4478 25.0344 21.6272 23.4027 20.696 21.2555C19.7647 19.1084 20.4016 17.3054 21.4617 16.6608C22.5218 16.017 23.6325 14.9862 23.8111 13.6122C23.8111 13.6122 21.0898 11.9804 22.3432 8.9746C22.3432 8.9746 20.2939 7.64334 17.4373 9.66206C14.5816 7.64421 12.5396 8.9746 12.5396 8.9746C13.793 11.9804 11.0791 13.6122 11.0791 13.6122Z" fill="#FFF3DA"/>
<path d="M2.41504 6.87001C2.55856 10.7773 7.64303 13.9552 10.5428 12.7096C13.0154 11.6482 11.9732 9.23116 11.9732 9.23116C4.55973 10.5196 2.41504 6.86914 2.41504 6.86914V6.87001Z" fill="#FFF3DA"/>
<path d="M4.52759 11.7223C4.52759 11.7223 2.9994 10.3814 2.34294 8.71645C1.68812 7.055 1.93031 6.08364 2.95128 4.89476C4.15655 3.49275 4.74287 1.75967 3.6322 -0.000488281C3.6322 -0.000488281 3.91925 2.54585 1.85937 3.56001C-0.932807 4.93407 -0.986628 9.53233 4.52759 11.7223Z" fill="#FFF3DA"/>
<path d="M10.5081 13.7404C9.6364 14.0837 8.60564 14.3065 6.08013 13.2687C3.88406 12.3664 3.88406 14.5135 6.35413 16.4458C8.56079 18.1718 9.6837 16.789 9.79134 15.415C9.87859 14.303 10.5073 13.7404 10.5073 13.7404H10.5081Z" fill="#FFF3DA"/>
<path d="M12.8421 26.0792C12.8421 26.0792 12.6692 24.216 13.1438 22.6105C13.6184 21.0058 13.5304 20.1515 12.193 18.9093C10.8556 17.6672 10.4022 17.123 10.3166 15.3628C10.3166 15.3628 9.1945 18.1581 10.8776 21.4452C12.5616 24.7323 12.8421 26.0784 12.8421 26.0784V26.0792Z" fill="#FFF3DA"/>
<path d="M12.8624 18.5981C13.92 19.1161 13.9633 20.0997 13.9633 20.0997C14.2438 18.1325 13.2726 17.5114 12.1072 16.7882C10.9419 16.0657 10.8408 14.7852 10.8408 14.7852C10.8408 16.8039 11.8055 18.081 12.8632 18.5981H12.8624Z" fill="#FFF3DA"/>
<path d="M21.9212 29.1591C22.2882 28.2786 22.1373 26.39 21.1441 25.3802C21.1441 25.3802 21.5706 27.9204 20.2593 28.2532C19.1372 28.538 19.138 27.5754 19.5042 27.0626C19.8923 26.5193 20.7559 26.079 20.7559 25.2509C20.7559 24.4228 19.3916 22.8007 17.4378 23.8314C15.4839 22.8007 14.1278 24.4228 14.1278 25.2509C14.1278 26.079 14.9987 26.5193 15.3877 27.0626C15.7538 27.5754 15.7538 28.538 14.6317 28.2532C13.3204 27.9204 13.7461 25.3802 13.7461 25.3802C12.7529 26.39 12.6004 28.2794 12.9673 29.1591C13.3343 30.0396 14.3227 30.1942 15.5312 29.8064C16.7397 29.4177 18.1456 29.4177 19.3541 29.8064C20.5626 30.1942 21.5559 30.0396 21.9228 29.1591H21.9212Z" fill="#FFF3DA"/>
<path d="M19.462 30.2981C18.2086 29.884 16.6706 29.884 15.4172 30.2981C14.1638 30.7121 13.3965 30.1007 13.3965 30.1007C14.0888 31.335 15.7654 32.2609 17.4412 32.2609C19.117 32.2609 20.7936 31.335 21.486 30.1007C21.486 30.1007 20.7145 30.7121 19.4611 30.2981H19.462Z" fill="#FFF3DA"/>
<path d="M20.9208 44.2011C20.9934 43.9024 20.6509 43.6892 20.4454 43.9058C20.3851 43.9696 20.3573 44.0552 20.3606 44.1391C20.4422 43.8045 20.9045 43.8526 20.9208 44.2011Z" fill="#FFF3DA"/>
<path d="M14.0531 37.2934C14.1347 36.9588 14.5979 37.0069 14.6134 37.3554C14.6378 37.2549 14.6134 37.144 14.5408 37.0636C14.3573 36.8636 14.0401 37.0138 14.0531 37.2925V37.2934Z" fill="#FFF3DA"/>
<path d="M6.49159 26.0293C6.56988 26.1149 6.61147 26.2249 6.61636 26.3359C6.72726 25.8764 6.20128 25.5488 5.88488 25.8825C5.79192 25.9804 5.7487 26.1114 5.75441 26.2407C5.84003 25.8886 6.25266 25.769 6.49159 26.0293Z" fill="#FFF3DA"/>
<path d="M28.112 24.3528C26.9964 25.0403 27.0078 26.1025 26.0203 27.6792C23.9947 31.2135 19.9834 35.1584 19.9834 35.1584L17.5818 37.7754L17.3959 37.9781L17.3755 37.9563L17.2197 37.7859L14.8182 35.1688C14.8182 35.1688 10.8069 31.2231 8.78122 27.6897C7.79369 26.113 7.80511 25.0508 6.68954 24.3633C5.10263 23.5832 1.05137 28.1046 0.0980859 29.0856C-0.00384807 29.1869 -0.00547901 29.3817 0.0458957 29.4752C0.26118 29.7661 1.34331 31.3175 2.86743 33.1326C5.16624 35.872 7.54415 38.2803 9.05849 39.8029C9.25257 39.9409 9.39446 39.8946 9.56081 39.7278C10.1838 39.1443 11.2113 38.2288 12.5903 38.2209C13.6121 38.3135 14.1046 38.5284 14.9356 39.8274C14.9845 39.892 15.0277 39.954 15.0693 40.0143L15.2504 40.3043C15.2504 40.3043 15.2544 40.3113 15.2569 40.3157L12.8871 42.9048C11.5579 44.4213 13.9546 46.8863 15.2593 45.6564C16.0862 44.9987 15.6459 44.078 16.423 43.3669C16.7932 42.9197 17.0966 42.731 17.3902 42.5895C17.6911 42.7318 17.9993 42.9188 18.3785 43.3765C19.1557 44.0876 18.7153 45.0083 19.5422 45.666C20.8461 46.896 23.2436 44.4309 21.9144 42.9144L19.7412 40.5393C19.6466 40.4362 19.5919 40.3759 19.4981 40.2737C19.5642 40.1611 19.6466 40.0335 19.7509 39.885C20.4596 38.6691 21.1894 38.3031 22.2112 38.2096C23.5902 38.2166 24.6177 39.132 25.2407 39.7164C25.4079 39.8833 25.5498 39.9296 25.743 39.7916C27.2574 38.269 29.6361 35.8598 31.9341 33.1213C33.4574 31.3061 34.5403 29.7547 34.7556 29.4638C34.8078 29.3704 34.8054 29.1756 34.7034 29.0742C33.7501 28.0933 29.6981 23.5719 28.112 24.3519V24.3528ZM5.75419 25.8562C5.99884 25.5993 6.39189 25.6028 6.63164 25.8649C6.87139 26.1269 6.86813 26.548 6.6243 26.8048C6.37966 27.0625 5.9866 27.0581 5.74686 26.7969C5.50629 26.5349 5.50955 26.1147 5.75419 25.857V25.8562ZM1.90354 28.9878C4.70631 32.8182 6.08528 34.5556 9.45807 38.3476C6.63001 35.5689 4.13548 32.5037 1.90354 28.9878ZM13.0421 37.1413C13.0763 37.0854 13.1138 37.0286 13.153 36.9718C13.4172 36.5927 13.7996 36.1909 14.1552 35.9166C14.2098 35.8747 14.2636 35.8353 14.3158 35.7995C14.0272 36.273 13.4955 36.8355 13.0421 37.1404V37.1413ZM14.6347 37.6191C14.4757 37.7868 14.2204 37.7842 14.0638 37.6138C13.9073 37.4435 13.9097 37.1701 14.0687 37.0032C14.2278 36.8364 14.483 36.8382 14.6388 37.0085C14.7953 37.1788 14.7929 37.4522 14.6339 37.6191H14.6347ZM13.882 43.8439C14.0386 43.6735 14.2938 43.6709 14.452 43.8386C14.611 44.0063 14.6135 44.2797 14.4569 44.4501C14.3003 44.6204 14.0451 44.6222 13.8861 44.4553C13.7271 44.2885 13.7246 44.0142 13.8812 43.8447L13.882 43.8439ZM14.1397 45.4511C14.7032 45.2913 15.009 44.8781 15.022 44.2483C15.2985 44.8676 14.7668 45.5927 14.1397 45.4511ZM17.1186 40.327C17.2776 40.1602 17.5329 40.1619 17.6894 40.3323C17.7653 40.4144 17.8028 40.5209 17.8044 40.6275C17.8044 40.7358 17.7661 40.8442 17.6894 40.9271C17.5329 41.0975 17.2776 41.1001 17.1186 40.9324C17.0411 40.8503 17.0012 40.7437 16.9987 40.6354C16.9987 40.5236 17.0387 40.4109 17.1186 40.3262V40.327ZM20.3495 43.8491C20.5085 43.6822 20.7638 43.684 20.9195 43.8543C21.0753 44.0247 21.0736 44.2981 20.9146 44.4649C20.7556 44.6326 20.5004 44.63 20.3438 44.4597C20.188 44.2894 20.1897 44.0159 20.3487 43.8482L20.3495 43.8491ZM19.7795 44.2579C19.7925 44.8886 20.0983 45.3009 20.6618 45.4608C20.0347 45.6014 19.503 44.8772 19.7795 44.2579ZM20.7385 37.6034C20.5819 37.7737 20.3267 37.7763 20.1677 37.6086C20.0086 37.4418 20.0062 37.1675 20.1628 36.998C20.3185 36.8277 20.5746 36.825 20.7328 36.9928C20.8918 37.1605 20.8942 37.4339 20.7377 37.6042L20.7385 37.6034ZM20.4857 35.7899C20.5379 35.8257 20.5925 35.865 20.6463 35.907C21.0019 36.1813 21.3843 36.5831 21.6485 36.9622C21.6885 37.019 21.726 37.0758 21.7595 37.1317C21.306 36.8268 20.7744 36.2634 20.4857 35.7908V35.7899ZM28.1699 25.8544C28.4104 25.5924 28.8027 25.5889 29.0473 25.8457C29.292 26.1034 29.2952 26.5235 29.0547 26.7856C28.8149 27.0476 28.4219 27.0511 28.1772 26.7935C27.9326 26.5366 27.9293 26.1156 28.1699 25.8535V25.8544ZM25.3451 38.3371C28.7171 34.5451 30.0968 32.8077 32.8996 28.9773C30.6685 32.4932 28.1739 35.5576 25.3451 38.3371Z" fill="#FFF3DA"/>
<path d="M14.4422 44.1288C14.4463 44.045 14.4178 43.9594 14.3574 43.8956C14.1511 43.679 13.8094 43.8921 13.882 44.1908C13.8983 43.8423 14.3615 43.7943 14.4422 44.1288Z" fill="#FFF3DA"/>
<path d="M20.2606 37.0539C20.1872 37.1334 20.1635 37.2443 20.188 37.3457C20.2043 36.9962 20.6667 36.9491 20.7482 37.2836C20.7613 37.0041 20.4441 36.8547 20.2606 37.0548V37.0539Z" fill="#FFF3DA"/>
<path d="M28.3119 26.0189C28.5509 25.7586 28.9635 25.8783 29.0491 26.2294C29.0548 26.1002 29.0116 25.9691 28.9187 25.8713C28.6014 25.5376 28.0755 25.8652 28.1872 26.3246C28.1921 26.2137 28.2337 26.1036 28.3119 26.018V26.0189Z" fill="#FFF3DA"/>
</g>
<g clip-path="url(#clip1_100_12)">
<path d="M94.3927 42.9956L93.875 41.5715C92.4886 43.5543 90.0491 43.6491 88.1435 42.455C82.2973 38.791 84.6645 24.2413 92.0886 26.2027C93.2272 26.5035 93.518 26.9889 94.2235 27.8649C94.2689 27.921 94.2204 28.0141 94.392 27.9655L94.7982 26.3041H97.5662V33.3444H94.1712C94.1366 32.0934 93.5419 30.4617 92.2148 30.3397C88.6358 30.0109 88.2819 39.7263 92.4286 39.1898C93.4918 39.0522 93.9819 38.158 93.8027 37.0628H92.6956V34.452H98.8587L98.9695 34.5707V36.9441C98.7749 37.1691 98.4217 37.0274 98.1579 37.0628V42.9956H94.3935H94.3927Z" fill="#FFF3DA"/>
<path d="M91.0713 2.21606L91.3259 2.09327C94.1348 2.46494 100.34 1.0722 102.289 3.64177C103.532 5.28092 103.384 9.13611 101.183 9.88935C102.637 10.4909 103.562 11.77 103.691 13.4511C104.284 21.1434 95.6904 18.2986 91.3259 18.873L91.0713 18.7502V15.8229C91.349 15.5765 91.8283 15.757 92.1784 15.7043V5.18285H91.0713V2.21606ZM96.2381 8.90041H97.5298C97.7222 8.90041 98.2007 8.67378 98.3453 8.50896C98.79 8.00049 98.7869 6.55253 98.493 5.96988C98.3584 5.70369 97.8691 5.26197 97.6037 5.26197H96.2381V8.90124V8.90041ZM96.2381 15.7034H98.1199C98.3576 15.7034 98.8985 15.1628 99.0308 14.9395C99.5493 14.0618 99.4178 12.3444 98.5215 11.793C98.453 11.751 98.1576 11.5903 98.1199 11.5903H96.2381V15.7034Z" fill="#FFF3DA"/>
<path d="M63.6875 2.21597C63.7521 2.10307 63.8344 2.10719 63.9421 2.09318C66.1648 1.81381 68.9797 2.25965 71.2516 2.17724C75.1636 2.09648 76.9331 7.59411 73.8504 10.0228L72.6925 10.5601C74.2474 10.9697 74.9528 12.3014 75.1267 13.9241C75.1621 14.2554 75.0136 15.7248 75.6652 15.5328C76.1738 15.2039 75.9784 14.4927 76.0138 13.962H77.2685V16.2959C77.2685 17.5807 76.1492 18.9569 74.9344 19.0946C72.6702 19.35 71.1139 18.1353 70.7823 15.733C70.5453 14.0189 71.2623 11.7328 68.7805 11.985V15.7034H69.9614V18.8679H63.7983L63.6875 18.7493V15.7034H64.7946V5.26188C64.4445 5.20914 63.9652 5.38962 63.6875 5.14321V2.21597ZM70.2199 5.26188C69.7852 5.19513 69.2305 5.31051 68.7805 5.26188V9.2959H70.0722C70.1107 9.2959 70.6023 9.11377 70.6777 9.07504C71.9932 8.38855 71.7432 5.49428 70.2199 5.26188Z" fill="#FFF3DA"/>
<path d="M43.5371 26.3038L51.1058 26.3005C54.2193 26.4612 55.7333 28.5421 55.091 31.8443C54.8648 33.008 54.3208 33.5164 53.4277 34.1345C55.6926 34.9446 56.1726 37.5826 55.6933 39.8473C55.4002 41.2326 54.6047 42.191 53.3507 42.636C53.0445 42.7448 52.1236 42.9954 51.8405 42.9954H43.5371V39.9099H44.6442V29.3885H43.5371V26.303V26.3038ZM48.5562 33.0277H50.1434C50.1649 33.0277 50.4603 32.8341 50.5126 32.7904C51.1404 32.2605 51.1112 30.6032 50.6565 29.9472C50.5627 29.8112 50.128 29.4684 49.9964 29.4684H48.557V33.0286L48.5562 33.0277ZM48.5562 39.9099H50.2911C50.3403 39.9099 50.7635 39.6841 50.8396 39.628C51.8605 38.8765 51.8513 36.5854 50.7488 35.9385C50.6427 35.8759 50.2334 35.7176 50.1426 35.7176H48.5555V39.9099H48.5562Z" fill="#FFF3DA"/>
<path d="M70.9219 26.304C73.1406 26.4103 75.4725 26.1631 77.6789 26.3007C79.7269 26.4284 81.5956 27.1322 82.0918 29.4817C82.4634 31.2412 82.3672 33.06 80.8517 34.1371C80.477 34.4033 80.0377 34.4915 79.7061 34.7676C80.8778 35.0239 81.8364 36.3581 81.9733 37.5984C82.0126 37.9552 81.8895 39.8589 82.5173 39.7164C82.6234 39.6925 82.8796 39.4081 82.8796 39.3167V38.1695H84.1344V40.3452C84.1344 41.8409 83.0012 43.223 81.591 43.3144C79.5253 43.4479 78.1136 42.1763 77.7943 40.0205C77.5543 38.397 78.2859 35.8933 75.8671 36.1925V39.8317H76.9742V42.9963H70.9219V39.8317H71.9551V29.4686H70.9219V26.304ZM75.8671 33.5026H76.9373C77.0511 33.5026 77.5858 33.304 77.7159 33.2298C78.7906 32.615 78.7614 30.3537 77.7628 29.6902C77.6212 29.5963 77.1504 29.3886 77.0104 29.3886H75.8664V33.5018L75.8671 33.5026Z" fill="#FFF3DA"/>
<path d="M112.476 26.3041C114.717 26.412 117.075 26.1582 119.303 26.3041C121.776 26.4664 123.638 27.4916 123.842 30.3785C124.004 32.6637 123.401 33.8018 121.449 34.6144C121.372 34.6465 121.271 34.6449 121.26 34.7669C122.697 35.0701 123.473 36.5 123.62 37.9726C123.654 38.313 123.493 39.7774 124.073 39.714C124.614 39.6546 124.503 38.5948 124.507 38.1688H125.762V40.028C125.762 41.7495 124.726 43.2412 123.072 43.3137C120.837 43.4118 119.502 41.8534 119.341 39.5516C119.227 37.9224 119.729 35.928 117.421 36.1909V39.8302H118.602V42.9948H112.476V39.9489C112.753 39.7024 113.233 39.8829 113.583 39.8302V29.467C113.233 29.4143 112.753 29.5947 112.476 29.3483V26.3024L112.476 26.3041ZM117.422 29.5082V33.3848C117.846 33.6205 118.746 33.5183 119.194 33.3074C120.397 32.7395 120.397 30.2417 119.29 29.6425C118.982 29.4752 117.514 29.1901 117.422 29.509V29.5082Z" fill="#FFF3DA"/>
<path d="M110.557 2.09741V5.18288H109.523C109.601 7.22832 109.42 9.36029 109.52 11.3958C109.59 12.7977 109.75 15.0697 111.479 15.0705C112.948 15.0705 113.232 13.5278 113.36 12.262C113.585 10.0525 113.345 7.689 113.435 5.45978L113.314 5.27353L112.402 5.26282V2.09741H118.085V5.18288H117.051C116.815 8.83863 117.851 14.6428 115.391 17.6039C113.405 19.9946 109.061 19.6633 107.159 17.3278C104.664 14.2662 105.801 9.00016 105.537 5.26199H104.43V2.09741H110.556H110.557Z" fill="#FFF3DA"/>
<path d="M62.5805 26.304V29.3894H61.5472C61.688 31.9227 61.2864 34.7511 61.718 37.2349C61.9596 38.6236 62.5605 39.5573 64.043 39.1444C65.0539 38.8626 65.2639 36.9333 65.3147 35.998C65.4301 33.866 65.2216 31.6129 65.3116 29.4677H64.3515V26.304H69.8876V29.3894H68.8544C68.6013 33.0534 69.7252 39.1403 67.0826 42.0065C65.4108 43.8204 62.0973 43.7998 60.1955 42.4268C56.5773 39.8144 57.8998 33.4902 57.6244 29.5188C57.5475 29.2666 56.7528 29.438 56.5273 29.3894V26.304H62.5797H62.5805Z" fill="#FFF3DA"/>
<path d="M89.8899 7.39726H86.5679V5.38067L86.4579 5.26199H83.4682V8.58398H87.0849V11.7486H83.4682V15.6244H86.5679V13.41H89.8899V18.7494L89.7791 18.868H78.2275V15.6244H79.4085V5.26199H78.2275V2.09741H89.7791L89.8899 2.21608V7.39726Z" fill="#FFF3DA"/>
<path d="M111.296 26.304V31.6038H108.048V29.4685H105.022V32.7905H108.638V35.9551H105.022V39.8309H108.048V37.6165H111.296V42.9955H99.9287V39.8309H101.11V29.4685H99.9287V26.304H111.296Z" fill="#FFF3DA"/>
<path d="M55.0517 2.09741V7.39726H51.6559V5.26199H48.8147L48.7039 5.38067V9.33557L48.8147 9.45424H52.3944V12.6188H48.8147L48.7039 12.7375V15.6244H50.6965V18.868H43.5371V15.6244H44.718V5.26199H43.5371V2.09741H55.0517Z" fill="#FFF3DA"/>
<path d="M125.244 5.26199H124.211V15.6244H126.721V12.6188H129.969V18.7494L129.858 18.868H119.118V15.6244H120.152V5.26199H119.118V2.09741H125.134L125.244 2.21608V5.26199Z" fill="#FFF3DA"/>
<path d="M137.277 5.26199H136.243V15.6244H138.753V12.6188H142V18.7494L141.89 18.868H131.15V15.6244H132.184V5.26199H131.15V2.21608L131.261 2.09741H137.166L137.277 2.21608V5.26199Z" fill="#FFF3DA"/>
<path d="M62.5066 2.09741V5.26199H61.3257V15.6244H62.5066V18.868H56.1957L56.085 18.7494V15.743L56.1957 15.6244H57.3397V5.38067L57.229 5.26199H56.085V2.21608L56.1957 2.09741H62.5066Z" fill="#FFF3DA"/>
</g>
<defs>
<clipPath id="clip0_100_12">
<rect width="34.8908" height="46" fill="white"/>
</clipPath>
<clipPath id="clip1_100_12">
<rect width="98.4631" height="41.4156" fill="white" transform="translate(43.5371 2)"/>
</clipPath>
</defs>
</svg>
