<svg width="48" height="48" viewBox="0 0 48 48" fill="none" xmlns="http://www.w3.org/2000/svg">
<g clip-path="url(#clip0_101_460)">
<path d="M31.0015 13.7207L29.0815 15.6406C28.7072 16.015 28.7072 16.6236 29.0815 16.998C29.2697 17.1862 29.5154 17.2802 29.7593 17.2802C30.005 17.2802 30.2508 17.1862 30.4389 16.998L32.3589 15.0781C32.7332 14.7038 32.7332 14.0951 32.3589 13.7207C31.9845 13.3464 31.3759 13.3464 31.0015 13.7207Z" fill="#FFAE00"/>
<path d="M24.6792 7.96093C24.3048 7.58659 23.6962 7.58659 23.3218 7.96093C22.9474 8.33528 22.9474 8.94391 23.3218 9.31834L25.2417 11.2383C25.4298 11.4264 25.6756 11.5204 25.9194 11.5204C26.1651 11.5204 26.4109 11.4264 26.5991 11.2383C26.9734 10.8639 26.9734 10.2553 26.5991 9.88084L24.6792 7.96093Z" fill="#FFAE00"/>
<path d="M17.562 9.8808L15.6421 11.8007C15.2677 12.1751 15.2677 12.7837 15.6421 13.1581C15.8302 13.3463 16.076 13.4403 16.3198 13.4403C16.5655 13.4403 16.8113 13.3463 16.9995 13.1581L18.9194 11.2382C19.2938 10.8639 19.2938 10.2552 18.9194 9.8808C18.545 9.50637 17.9364 9.50637 17.562 9.8808Z" fill="#FFAE00"/>
<path d="M9.31981 13.7207C8.94546 13.3464 8.33684 13.3464 7.9624 13.7207C7.58805 14.095 7.58805 14.7037 7.9624 15.0781L9.88231 16.998C10.0705 17.1862 10.3162 17.2802 10.56 17.2802C10.8057 17.2802 11.0516 17.1862 11.2397 16.998C11.6141 16.6237 11.6141 16.015 11.2397 15.6406L9.31981 13.7207Z" fill="#FFAE00"/>
<path d="M1.01006 21.1201H46.9616C47.2016 21.1201 47.4646 21.001 47.6413 20.8398C47.8141 20.6804 47.9235 20.4616 47.9485 20.2273C48.2596 17.1381 47.1651 14.1142 44.7845 11.4801C40.5202 6.76674 32.5583 3.8407 23.9993 3.8407C15.4306 3.8407 7.46101 6.77433 3.20072 11.4974C0.823868 14.1354 -0.264759 17.165 0.0558663 20.258C0.10771 20.7476 0.518523 21.1201 1.01006 21.1201ZM4.62722 12.7837C8.53426 8.45049 15.9566 5.7607 23.9993 5.7607C32.0323 5.7607 39.4508 8.44477 43.3598 12.7684C45.1454 14.744 46.0765 16.9519 46.0785 19.2002H1.92206C1.92393 16.9577 2.84934 14.7555 4.62722 12.7837Z" fill="#FFAE00"/>
<path d="M38.1187 11.8008C37.7443 11.4264 37.1357 11.4264 36.7613 11.8008C36.3868 12.1751 36.3869 12.7837 36.7613 13.1582L38.6812 15.0781C38.8693 15.2663 39.115 15.3603 39.3589 15.3603C39.6046 15.3603 39.8504 15.2663 40.0386 15.0781C40.4129 14.7038 40.4129 14.0951 40.0386 13.7207L38.1187 11.8008Z" fill="#FFAE00"/>
<path d="M35.5187 23.04C35.2653 23.04 35.0214 23.1399 34.841 23.3204L29.5708 28.5905L18.6694 23.1399C18.537 23.0746 18.3891 23.04 18.2394 23.04H2.87992C2.35005 23.04 1.91992 23.4682 1.91992 24C1.91992 24.5299 2.34995 24.96 2.87992 24.96H18.0128L29.3308 30.6181C29.4671 30.6853 29.613 30.7198 29.7589 30.7198C30.0085 30.7198 30.2543 30.6219 30.4386 30.4376L35.9181 24.96H45.1184C45.6503 24.96 46.0784 24.53 46.0784 24C46.0784 23.4682 45.6503 23.04 45.1184 23.04H35.5187Z" fill="#FFAE00"/>
<path d="M45.1183 36.4795H2.87991C1.29206 36.4795 0 37.7697 0 39.3594C0 42.005 2.15419 44.1592 4.79982 44.1592H43.1984C45.846 44.1592 47.9982 42.005 47.9982 39.3594C47.9982 37.7697 46.708 36.4795 45.1183 36.4795ZM43.1984 42.2393H4.79982C3.21207 42.2393 1.91991 40.9473 1.91991 39.3594C1.91991 38.8295 2.35191 38.3994 2.87991 38.3994H45.1183C45.6482 38.3994 46.0783 38.8294 46.0783 39.3594C46.0782 40.9473 44.788 42.2393 43.1984 42.2393Z" fill="#FFAE00"/>
<path d="M44.1583 26.8799H37.1141C36.5823 26.8799 36.1541 27.308 36.1541 27.8399C36.1541 28.3698 36.5823 28.7999 37.1141 28.7999H44.1583C45.2181 28.7999 46.0782 29.66 46.0782 30.7198C46.0782 31.7777 45.2181 32.6397 44.1583 32.6397H3.83982C2.78194 32.6397 1.91991 31.7777 1.91991 30.7198C1.91991 29.66 2.78194 28.7999 3.83982 28.7999H17.3369C17.8688 28.7999 18.2969 28.3699 18.2969 27.8399C18.2969 27.308 17.8688 26.8799 17.3369 26.8799H3.83982C1.72219 26.8799 0 28.6001 0 30.7197C0 32.8374 1.72219 34.5595 3.83982 34.5595H44.1583C46.2779 34.5595 47.9981 32.8373 47.9981 30.7197C47.9982 28.6001 46.2779 26.8799 44.1583 26.8799Z" fill="#FFAE00"/>
</g>
<defs>
<clipPath id="clip0_101_460">
<rect width="48" height="48" fill="white"/>
</clipPath>
</defs>
</svg>
